<?xml version="1.0" standalone="no"?>
<!DOCTYPE svg PUBLIC "-//W3C//DTD SVG 20010904//EN"
 "http://www.w3.org/TR/2001/REC-SVG-20010904/DTD/svg10.dtd">
<svg version="1.0" xmlns="http://www.w3.org/2000/svg"
 width="353.000000pt" height="353.000000pt" viewBox="0 0 353.000000 353.000000"
 preserveAspectRatio="xMidYMid meet">
<metadata>
Created by potrace 1.11, written by Peter Selinger 2001-2013
</metadata>
<g transform="translate(0.000000,353.000000) scale(0.100000,-0.100000)"
fill="#000000" stroke="none">
<path d="M1677 3418 c-27 -14 -192 -48 -237 -48 -27 0 -52 -5 -55 -10 -9 -15
45 -34 59 -20 5 5 26 10 45 10 33 0 34 -1 19 -16 -20 -20 -140 -30 -132 -11 3
8 -9 13 -32 15 -22 1 -33 -2 -29 -8 3 -6 -2 -13 -12 -16 -37 -11 -117 -49
-128 -60 -6 -7 -36 -26 -67 -43 -31 -18 -84 -59 -118 -92 -35 -33 -74 -65 -86
-70 -13 -4 -24 -14 -24 -21 0 -14 -62 -58 -83 -58 -20 0 -45 -60 -51 -120 -2
-30 -14 -95 -26 -145 -12 -49 -26 -115 -30 -146 -4 -30 -12 -64 -18 -75 -6
-11 -12 -78 -14 -149 -3 -155 16 -264 52 -293 19 -15 21 -22 11 -40 -14 -26
-14 -44 0 -19 15 26 29 20 29 -13 0 -23 -5 -30 -19 -30 -11 0 -22 6 -25 13 -3
6 -2 -46 2 -118 4 -71 6 -155 6 -185 -1 -45 0 -51 8 -30 5 14 7 55 4 93 -4 42
-2 67 4 67 5 0 10 -13 10 -28 0 -15 5 -33 10 -38 7 -7 7 -32 2 -72 -5 -35 -5
-84 -1 -110 19 -117 3 -177 -34 -124 -18 27 -18 27 -11 2 4 -14 16 -37 28 -52
51 -64 56 -74 56 -113 0 -23 4 -45 8 -51 4 -5 14 -27 21 -49 19 -58 51 -126
72 -154 11 -13 19 -34 19 -47 0 -13 9 -50 20 -81 10 -32 28 -105 40 -161 11
-57 26 -118 34 -135 7 -18 19 -48 26 -67 8 -19 19 -42 25 -50 7 -8 16 -25 20
-38 9 -30 127 -145 190 -185 51 -33 75 -45 133 -69 17 -7 32 -16 32 -20 0 -5
12 -8 28 -8 15 0 38 -9 52 -20 14 -11 37 -20 53 -20 15 0 27 -4 27 -10 0 -14
153 -13 204 2 22 6 48 17 56 24 8 7 33 16 55 20 22 4 63 17 92 30 28 13 56 24
61 24 6 0 12 7 16 15 3 8 12 15 21 15 8 0 45 18 81 40 36 22 71 40 78 40 24 0
203 166 236 219 8 13 25 36 38 51 12 15 22 31 22 34 0 3 8 14 19 25 25 25 48
108 58 211 11 114 1 393 -15 412 -15 18 -13 233 2 218 17 -17 72 -11 107 13
50 33 77 90 83 172 4 55 3 61 -3 25 -12 -65 -39 -135 -61 -155 -13 -11 -32
-15 -66 -13 -42 3 -51 7 -62 31 -19 39 -26 27 -32 -56 -3 -44 -10 -72 -17 -75
-8 -2 -13 5 -13 17 0 13 -6 21 -16 21 -10 0 -14 -6 -10 -15 3 -8 1 -15 -4 -15
-5 0 -10 -10 -12 -22 -2 -12 -9 -23 -15 -26 -17 -5 -16 23 1 37 20 17 28 74
16 106 -7 20 -8 31 0 39 5 5 10 19 10 30 1 21 1 21 15 2 22 -29 18 -13 -6 29
-15 24 -19 44 -15 63 4 15 8 34 9 42 1 8 7 18 12 22 6 4 10 63 10 139 l0 131
35 34 c19 19 45 37 57 41 13 3 23 9 23 13 0 5 15 18 34 29 35 22 57 20 88 -7
17 -14 18 -7 14 134 -2 113 -7 160 -21 194 -12 32 -18 78 -20 155 -3 155 -3
153 -25 172 -11 10 -20 25 -20 35 0 9 -4 19 -9 22 -4 3 -16 27 -26 53 -23 62
-115 204 -127 197 -10 -6 -48 23 -48 37 0 5 -10 21 -22 36 -108 127 -104 125
-175 109 -28 -7 -33 -5 -33 12 0 24 -30 52 -57 52 -23 0 -83 31 -83 43 0 4
-18 7 -41 7 -44 0 -99 26 -99 47 0 11 -32 13 -151 11 -82 -2 -156 -6 -162 -10z
m43 -67 c0 -4 15 -13 33 -19 32 -10 32 -10 -18 -12 -27 -1 -59 -3 -70 -6 -39
-8 -135 -10 -147 -3 -20 12 -3 21 51 26 28 2 63 8 78 13 38 11 73 12 73 1z
m-322 -66 c-7 -7 -67 8 -63 16 3 4 19 3 36 -3 16 -6 29 -12 27 -13z m102 15
c12 -8 9 -10 -13 -10 -16 0 -26 4 -22 10 8 12 16 12 35 0z m-63 -16 c-3 -3
-12 -4 -19 -1 -8 3 -5 6 6 6 11 1 17 -2 13 -5z m943 -44 c11 -7 6 -10 -22 -10
-20 0 -48 -4 -62 -10 -20 -7 -24 -6 -20 5 9 23 77 33 104 15z m-199 -96 c11
-18 18 -38 14 -44 -4 -6 1 -7 11 -3 12 4 15 3 10 -5 -4 -7 -3 -12 1 -12 10 0
9 0 87 -154 43 -86 57 -124 53 -144 -6 -29 21 -72 45 -72 8 0 19 -5 26 -12 9
-9 12 -9 12 0 0 7 4 12 10 12 6 0 7 -32 3 -87 -8 -113 -8 -169 1 -328 4 -71 9
-166 11 -210 2 -44 7 -99 10 -122 3 -24 1 -51 -4 -61 -6 -11 -6 -23 -1 -28 5
-5 5 -28 1 -51 -7 -35 -5 -48 14 -75 15 -24 19 -40 14 -58 -4 -14 -7 -18 -8
-9 -2 30 -24 39 -49 20 l-24 -17 22 -37 c12 -20 26 -37 31 -37 19 0 8 -21 -16
-30 -22 -8 -23 -12 -13 -41 9 -26 8 -33 -6 -41 -9 -5 -16 -17 -15 -26 0 -15 1
-15 8 1 6 17 8 16 19 -8 10 -21 10 -31 1 -41 -6 -8 -9 -25 -7 -39 3 -13 2 -26
-2 -27 -4 -2 -10 -18 -13 -35 -5 -23 -3 -32 6 -30 7 1 12 -8 12 -21 0 -12 7
-27 15 -32 12 -8 12 -11 -3 -28 -9 -10 -17 -24 -17 -30 0 -7 -5 -12 -10 -12
-6 0 -9 -3 -9 -7 3 -19 -2 -33 -11 -33 -5 0 -10 9 -10 20 0 24 -15 27 -24 4
-3 -8 -11 -12 -16 -9 -8 5 -7 11 1 21 6 8 9 18 5 21 -4 4 -12 1 -17 -7 -7 -11
-8 -5 -3 20 3 19 10 36 15 38 4 2 6 9 3 16 -3 7 1 18 9 24 8 7 13 24 11 38 -2
19 1 24 12 20 17 -7 19 15 2 32 -10 10 -10 17 0 32 11 18 10 19 -18 13 -25 -5
-30 -2 -30 14 0 10 -7 28 -15 39 -14 18 -15 18 -12 -6 1 -16 -3 -24 -11 -22
-8 1 -11 -5 -6 -22 3 -14 1 -27 -6 -31 -9 -6 -9 -10 1 -16 10 -6 11 -9 2 -9
-18 0 -16 -31 3 -58 14 -20 14 -24 0 -37 -13 -14 -16 -14 -24 2 -10 21 -9 63
2 116 9 43 -7 89 -29 80 -7 -2 -16 4 -19 14 -3 11 -20 29 -36 41 -22 16 -30
31 -30 52 0 17 -5 30 -11 30 -6 0 -8 8 -4 19 3 11 1 22 -4 26 -7 3 -8 0 -5 -9
3 -9 1 -16 -5 -16 -6 0 -11 4 -11 9 0 12 -61 81 -72 81 -13 0 -48 34 -48 47 0
7 -4 13 -10 13 -5 0 -10 -4 -10 -10 0 -5 -7 -7 -15 -4 -8 3 -13 10 -12 16 1 6
-14 19 -33 30 -19 11 -40 25 -45 31 -6 7 -19 18 -30 25 -11 6 -40 26 -65 42
-71 47 -148 85 -156 77 -4 -3 13 -27 36 -51 80 -82 77 -104 -10 -85 -32 7 -81
9 -122 4 -46 -4 -74 -3 -83 5 -17 14 -67 16 -86 4 -8 -5 -31 -10 -53 -11 -21
-2 -52 -10 -69 -18 l-30 -15 6 36 c4 20 13 44 22 54 9 9 19 31 24 47 8 29 6
28 -44 -21 -117 -111 -143 -133 -183 -152 -22 -10 -45 -29 -51 -41 -6 -13 -19
-23 -28 -23 -15 0 -16 -2 -3 -10 12 -7 12 -12 2 -22 -10 -10 -16 -10 -33 0
-16 10 -24 10 -34 2 -8 -7 -19 -9 -25 -5 -5 3 -10 2 -10 -4 0 -5 5 -13 10 -16
6 -4 8 -31 5 -68 -4 -51 -10 -66 -33 -88 -34 -32 -48 -21 -49 36 -1 22 -5 90
-9 150 -10 135 -10 166 1 330 9 147 8 452 -2 469 -11 17 -3 83 18 143 30 87
117 233 147 244 13 5 27 7 29 5 3 -3 22 4 41 15 20 10 42 19 49 19 7 0 13 4
13 8 0 14 89 58 175 87 44 14 108 40 141 56 69 32 78 35 71 17 -20 -55 -20
-60 3 -53 14 5 20 3 16 -3 -8 -13 14 -21 34 -12 69 32 90 45 90 54 0 13 36 46
50 46 6 0 10 3 10 8 0 8 100 48 145 57 17 4 41 6 55 5 14 0 43 0 65 1 103 5
120 2 185 -31 46 -23 62 -20 38 7 -8 10 -19 25 -23 33 -18 30 24 -11 46 -46z
m214 16 c3 -5 1 -10 -4 -10 -6 0 -11 5 -11 10 0 6 2 10 4 10 3 0 8 -4 11 -10z
m-661 -1562 c5 -9 7 -21 3 -25 -5 -4 -11 -2 -15 4 -4 6 -16 12 -26 14 -11 2
-21 10 -24 17 -6 20 49 11 62 -10z m780 7 c3 -8 1 -15 -4 -15 -6 0 -10 7 -10
15 0 8 2 15 4 15 2 0 6 -7 10 -15z m-1328 -21 c-4 -9 -9 -15 -11 -12 -3 3 -3
13 1 22 4 9 9 15 11 12 3 -3 3 -13 -1 -22z m1310 -82 c-3 -6 0 -13 6 -15 8 -4
9 -6 2 -6 -15 -1 -30 17 -39 48 l-7 24 22 -21 c12 -11 19 -25 16 -30z m-943 1
c7 -12 12 -11 29 4 20 17 21 17 36 -5 14 -21 16 -21 33 -6 24 22 49 11 49 -21
0 -26 15 -34 23 -12 7 18 18 3 20 -29 1 -20 -3 -29 -15 -32 -12 -2 -18 3 -18
14 0 14 -3 15 -12 6 -20 -20 -37 -14 -54 20 -16 31 -18 32 -26 12 -8 -17 -19
-21 -74 -22 -51 -2 -66 1 -71 14 -5 15 -7 15 -15 0 -7 -12 -23 -15 -69 -14
-43 1 -62 -3 -72 -14 -6 -9 -23 -19 -37 -23 -19 -5 -21 -4 -10 4 8 6 10 11 4
11 -8 0 -8 11 -1 40 11 40 20 49 32 30 9 -15 25 -12 25 4 0 23 22 31 32 12 9
-16 11 -16 25 3 15 22 59 29 65 10 2 -7 13 -5 32 5 30 15 56 11 69 -11z m617
7 c0 -5 -2 -10 -4 -10 -3 0 -8 5 -11 10 -3 6 -1 10 4 10 6 0 11 -4 11 -10z
m28 -86 c-10 -10 -28 6 -28 24 0 15 1 15 17 -1 9 -9 14 -19 11 -23z m-431 -16
c-3 -8 -6 -5 -6 6 -1 11 2 17 5 13 3 -3 4 -12 1 -19z m-927 -8 c0 -5 -4 -10
-10 -10 -5 0 -10 5 -10 10 0 6 5 10 10 10 6 0 10 -4 10 -10z m1430 0 c0 -5 -2
-10 -4 -10 -3 0 -8 5 -11 10 -3 6 -1 10 4 10 6 0 11 -4 11 -10z m-196 -105
c-17 -12 -16 -13 4 -19 24 -8 26 -14 12 -36 -9 -13 -10 -13 -10 0 0 13 -1 13
-10 0 -8 -13 -10 -12 -10 4 0 10 -8 25 -17 32 -17 12 -17 14 5 30 14 9 21 22
18 31 -3 8 -3 20 1 26 4 7 11 -3 15 -22 7 -26 6 -36 -8 -46z m-1089 35 c-11
-5 -14 -9 -7 -9 6 -1 12 -8 12 -16 0 -12 -3 -12 -18 3 -19 18 -11 32 18 31 10
0 8 -3 -5 -9z m1385 -20 c0 -5 -4 -10 -9 -10 -5 0 -12 -12 -14 -27 -3 -23 -4
-21 -6 10 -1 27 3 37 14 37 8 0 15 -4 15 -10z m-1350 -71 c0 -25 4 -38 12 -36
6 1 14 -6 16 -17 3 -13 0 -16 -10 -10 -10 6 -11 5 -1 -7 6 -8 11 -24 9 -34 -3
-22 -36 -34 -37 -13 -5 126 -4 166 3 162 4 -3 8 -23 8 -45z m1564 -37 c-3 -31
-8 -77 -10 -102 -9 -93 -16 -130 -25 -130 -5 0 -7 -12 -5 -27 4 -21 3 -24 -7
-14 -7 7 -13 22 -14 34 -1 12 -4 48 -7 80 -4 38 -3 57 5 57 6 0 8 8 4 20 -4
11 -2 20 4 20 6 0 11 7 11 16 0 9 -5 12 -12 8 -10 -6 -10 -4 0 7 6 7 12 21 12
31 0 10 7 18 15 18 9 0 15 10 15 26 0 14 4 22 10 19 5 -3 7 -30 4 -63z m-548
50 c11 -7 28 -72 18 -72 -14 0 -53 33 -48 41 3 5 10 7 15 4 5 -4 9 1 9 10 0
11 -5 15 -16 11 -8 -3 -12 -2 -9 4 7 12 16 12 31 2z m114 -7 c0 -8 -9 -15 -20
-15 -25 0 -26 17 -2 23 9 3 18 5 20 6 1 0 2 -6 2 -14z m-886 -55 c4 0 21 -10
37 -22 29 -22 39 -23 167 -20 106 2 153 7 207 24 38 12 76 21 84 19 8 -1 10 2
6 9 -5 9 -1 10 14 5 13 -4 21 -2 21 6 0 8 4 8 16 -2 14 -11 18 -11 29 4 7 9
16 17 21 17 14 -1 46 -49 39 -60 -3 -6 -2 -10 3 -10 11 0 21 -39 14 -58 -2 -7
-10 -12 -18 -12 -9 0 -12 -5 -9 -10 4 -6 1 -17 -5 -25 -7 -8 -10 -24 -7 -36 4
-15 0 -23 -14 -26 -24 -7 -24 -7 5 -38 14 -15 30 -24 35 -20 6 3 8 0 5 -8 -4
-11 -14 -13 -39 -7 -39 9 -58 0 -49 -23 7 -20 35 -22 52 -5 9 9 12 9 12 0 0
-7 8 -12 17 -12 14 0 13 -3 -5 -23 -12 -13 -22 -33 -22 -45 0 -12 -4 -22 -10
-22 -5 0 -10 11 -10 25 0 14 5 25 12 25 16 0 1 13 -19 16 -24 4 -43 -14 -36
-34 5 -14 3 -15 -8 -4 -20 19 -39 14 -49 -13 -5 -14 -16 -25 -25 -25 -8 0 -15
-4 -15 -9 0 -5 -8 -7 -19 -4 -13 3 -20 -2 -26 -19 l-7 -23 -7 25 c-7 24 -8 25
-15 3 -4 -11 -13 -24 -21 -26 -7 -3 -11 -14 -9 -24 3 -10 -2 -32 -11 -48 l-16
-30 5 48 c2 26 0 50 -5 53 -5 3 -9 -6 -9 -20 0 -14 -4 -26 -10 -26 -5 0 -10 5
-10 10 0 6 -8 13 -17 17 -10 3 -28 17 -41 31 -20 22 -25 24 -46 13 -12 -7 -34
-36 -47 -64 -17 -37 -31 -53 -46 -55 -25 -4 -28 4 -13 28 8 12 10 12 10 -5 1
-20 1 -20 15 -1 8 11 15 28 15 37 0 10 6 19 13 22 6 2 0 6 -15 9 -19 3 -28 1
-28 -7 0 -22 -29 -26 -42 -5 -9 14 -19 17 -42 13 -17 -3 -35 -9 -40 -14 -5 -4
-15 -2 -22 6 -20 20 -17 27 9 20 15 -4 18 -4 8 3 -7 5 -10 15 -6 22 6 9 3 9
-14 1 -20 -11 -26 -8 -21 14 1 5 -7 2 -17 -8 -14 -12 -22 -14 -30 -6 -12 12
-6 49 8 49 5 0 9 5 9 11 0 6 -9 8 -20 4 -11 -3 -20 -2 -20 3 0 5 10 12 23 16
l22 6 -22 18 c-13 9 -26 33 -29 52 -4 19 -13 42 -20 51 -8 9 -11 19 -7 23 5 4
8 17 8 29 1 37 14 50 32 31 15 -14 17 -14 25 0 5 8 4 33 -1 57 -9 41 -6 69 9
69 4 0 10 9 13 21 3 12 10 18 16 14 6 -3 11 -1 11 5 0 6 13 2 29 -9 16 -12 32
-21 35 -21z m789 -40 c-3 -11 -7 -20 -9 -20 -2 0 -4 9 -4 20 0 11 4 20 9 20 5
0 7 -9 4 -20z m96 -236 c-10 -13 -10 -17 1 -24 12 -7 11 -13 -5 -31 l-20 -22
28 7 c26 6 27 6 10 -14 -19 -22 -35 -14 -37 19 -1 28 -20 31 -24 4 -2 -12 -10
-24 -18 -27 -11 -4 -13 0 -8 22 7 27 24 47 60 69 26 16 29 16 13 -3z m395 -19
c3 -9 0 -15 -10 -15 -10 0 -14 -6 -10 -15 6 -18 -10 -20 -20 -3 -4 6 -2 14 4
16 7 2 12 10 12 18 0 19 16 18 24 -1z m-44 -4 c0 -6 -4 -13 -10 -16 -5 -3 -10
-15 -10 -26 0 -10 -4 -19 -10 -19 -13 0 -13 12 0 44 9 25 30 36 30 17z m-450
-75 c0 -7 -7 -19 -15 -26 -12 -10 -15 -9 -15 7 0 11 3 23 7 26 11 12 23 8 23
-7z m-60 -97 c-11 -20 -30 -26 -30 -9 0 6 5 10 10 10 6 0 10 7 10 16 0 8 5 12
10 9 7 -4 7 -13 0 -26z m-293 -1 c-3 -8 -6 -5 -6 6 -1 11 2 17 5 13 3 -3 4
-12 1 -19z m-40 -30 c-3 -8 -6 -5 -6 6 -1 11 2 17 5 13 3 -3 4 -12 1 -19z
m-117 -8 c8 -5 11 -12 7 -16 -3 -4 -13 -1 -21 5 -8 7 -20 10 -26 6 -5 -3 -10
-1 -10 4 0 13 30 14 50 1z m-240 -4 c0 -3 -4 -8 -10 -11 -5 -3 -10 -1 -10 4 0
6 5 11 10 11 6 0 10 -2 10 -4z"/>
<path d="M1876 2673 c-1 -2 -46 -4 -99 -5 -71 -1 -97 -4 -101 -14 -3 -8 -19
-14 -36 -14 -16 0 -30 -4 -30 -10 0 -5 -9 -10 -19 -10 -25 0 -52 -27 -45 -44
9 -22 -16 -30 -36 -11 -17 15 -19 15 -29 -2 -10 -17 -10 -17 -11 0 0 9 -4 17
-10 17 -5 0 -10 -7 -10 -16 0 -10 -5 -14 -15 -10 -8 3 -22 9 -30 12 -8 3 -15
1 -15 -5 0 -20 -30 -11 -41 12 l-10 22 5 -22 c5 -28 -7 -30 -25 -3 -29 41
-186 42 -289 2 -60 -24 -81 -49 -134 -157 -40 -84 -45 -188 -8 -198 12 -3 10
-5 -5 -6 -28 -1 -28 -8 -4 -45 19 -28 19 -31 3 -43 -16 -12 -16 -12 1 -13 22
0 22 -16 1 -24 -9 -4 -14 -9 -11 -12 8 -8 84 33 90 50 8 20 50 47 79 50 13 1
28 5 34 9 11 6 40 4 49 -5 3 -3 -9 -11 -27 -18 -71 -27 -96 -40 -102 -55 -3
-9 0 -15 9 -15 8 0 15 -3 15 -7 0 -10 81 -10 96 -1 6 4 38 10 70 14 62 7 88
19 77 37 -3 6 -1 7 6 3 19 -12 67 31 89 81 11 26 23 71 27 98 7 50 36 110 56
117 6 2 28 2 50 0 45 -5 59 -26 59 -86 0 -44 19 -97 41 -119 15 -14 19 -15 19
-3 0 23 20 29 39 12 10 -9 24 -16 32 -16 9 0 7 -5 -6 -12 -11 -6 -21 -12 -23
-14 -2 -1 3 -12 10 -24 23 -39 131 -81 223 -86 76 -5 83 -4 108 20 l27 25 -23
16 c-13 8 -45 19 -71 24 -54 10 -72 21 -33 21 14 0 28 4 32 9 7 13 110 3 161
-16 54 -19 98 -14 103 12 2 11 10 25 19 31 9 6 12 16 7 24 -4 7 -2 16 6 21 10
6 11 9 2 9 -7 0 -13 7 -13 15 0 8 -4 15 -10 15 -5 0 -7 7 -4 15 4 8 1 22 -6
30 -7 8 -9 22 -6 31 7 17 -37 86 -79 125 -15 13 -35 42 -45 65 -10 22 -30 53
-44 69 -22 24 -28 26 -42 14 -10 -8 -18 -9 -22 -2 -7 10 -68 23 -76 16z m-369
-135 c-3 -8 -6 -5 -6 6 -1 11 2 17 5 13 3 -3 4 -12 1 -19z m448 -38 c3 -5 12
-7 20 -4 8 3 22 -1 31 -10 9 -10 24 -14 35 -11 11 4 19 2 19 -4 0 -6 -10 -11
-22 -11 -19 0 -20 -2 -8 -10 13 -8 12 -10 -2 -10 -10 0 -18 5 -18 11 0 6 -7 9
-14 6 -10 -4 -13 -1 -9 9 3 9 -1 14 -15 14 -11 0 -25 7 -32 15 -8 9 -9 15 -2
15 6 0 13 -4 17 -10z m-60 -20 c3 -5 1 -10 -4 -10 -6 0 -11 5 -11 10 0 6 2 10
4 10 3 0 8 -4 11 -10z m-390 -30 c3 -5 -1 -10 -9 -10 -9 0 -16 5 -16 10 0 6 4
10 9 10 6 0 13 -4 16 -10z m-376 -30 c37 -19 19 -40 -34 -40 -13 0 -26 -4 -30
-10 -3 -5 -13 -6 -22 -3 -9 4 -14 2 -10 -3 3 -6 -16 -17 -43 -25 -46 -14 -48
-14 -39 2 5 10 14 21 19 24 6 3 10 14 10 24 0 44 90 63 149 31z m976 10 c4 -6
15 -8 26 -5 28 9 23 -9 -7 -25 -23 -13 -27 -12 -35 2 -6 11 -16 15 -27 11 -15
-6 -15 -5 -3 10 15 19 37 22 46 7z m-1171 -129 c8 -12 -22 -36 -32 -26 -4 4
-1 10 6 12 6 3 10 9 6 14 -3 5 -1 9 5 9 5 0 12 -4 15 -9z"/>
<path d="M2405 1639 c-9 -28 -2 -33 13 -9 6 11 8 21 3 25 -5 3 -13 -4 -16 -16z"/>
<path d="M2195 1550 c3 -5 8 -10 11 -10 2 0 4 5 4 10 0 6 -5 10 -11 10 -5 0
-7 -4 -4 -10z"/>
<path d="M2371 1514 c0 -11 3 -14 6 -6 3 7 2 16 -1 19 -3 4 -6 -2 -5 -13z"/>
<path d="M2281 1503 c0 -4 4 -17 9 -28 8 -19 9 -19 9 2 1 12 -3 25 -9 28 -5 3
-10 3 -9 -2z"/>
<path d="M2375 1481 c-3 -5 -1 -12 5 -16 5 -3 10 1 10 9 0 18 -6 21 -15 7z"/>
<path d="M2411 1396 c-8 -10 -9 -16 -1 -21 5 -3 13 1 16 10 9 22 -1 29 -15 11z"/>
<path d="M2565 1180 c-3 -5 -1 -10 4 -10 6 0 11 5 11 10 0 6 -2 10 -4 10 -3 0
-8 -4 -11 -10z"/>
<path d="M1506 1103 c-2 -2 -28 -5 -57 -6 -30 -2 -53 -6 -51 -10 1 -4 2 -16 2
-27 0 -26 14 -25 41 3 19 19 21 19 15 3 -3 -10 -1 -25 5 -32 12 -15 3 -38 -12
-29 -5 4 -17 -7 -27 -24 -17 -31 -39 -43 -29 -16 4 8 2 17 -3 20 -6 4 -14 -5
-19 -18 -6 -14 -16 -28 -23 -31 -7 -3 -3 -4 10 -2 13 2 26 -2 31 -11 19 -34
191 -14 178 21 -6 14 47 41 63 31 12 -8 13 15 1 34 -7 11 -13 9 -31 -9 -23
-23 -23 -23 -18 -2 7 24 -8 38 -34 34 -10 -2 -18 2 -18 7 0 6 4 11 10 11 5 0
7 7 4 15 -4 9 0 15 10 15 28 0 17 18 -14 22 -17 3 -32 3 -34 1z m24 -81 c0
-13 -31 -52 -41 -52 -6 0 -5 9 2 23 11 20 11 21 -4 8 -10 -8 -17 -9 -17 -3 0
12 29 31 48 32 6 0 12 -3 12 -8z m37 -18 c2 -5 -6 -10 -17 -10 -20 0 -25 7
-13 20 9 8 26 3 30 -10z m-137 -70 c0 -8 -5 -12 -10 -9 -6 4 -8 11 -5 16 9 14
15 11 15 -7z"/>
<path d="M1173 814 c-10 -22 -10 -25 3 -20 9 3 18 6 20 6 2 0 4 9 4 20 0 28
-13 25 -27 -6z"/>
<path d="M1327 733 c-4 -3 -7 -11 -7 -17 0 -6 5 -5 12 2 6 6 9 14 7 17 -3 3
-9 2 -12 -2z"/>
<path d="M1470 3400 c0 -5 4 -10 9 -10 6 0 13 5 16 10 3 6 -1 10 -9 10 -9 0
-16 -4 -16 -10z"/>
<path d="M2290 3312 c6 -13 14 -21 18 -18 3 4 -2 14 -12 24 -18 16 -18 16 -6
-6z"/>
<path d="M2806 2075 c21 -62 27 -137 15 -188 -20 -81 -25 -157 -11 -157 8 0
10 11 6 33 -3 18 -3 37 1 40 10 10 13 40 18 150 2 53 0 97 -4 97 -4 0 -13 10
-20 23 -8 16 -10 17 -5 2z"/>
<path d="M2664 2046 c-35 -35 -47 -81 -19 -70 9 4 20 15 26 25 11 22 29 25 29
5 0 -7 7 -19 15 -26 7 -6 17 -33 20 -58 7 -51 22 -118 32 -142 9 -23 36 116
37 193 1 61 -2 71 -23 88 -36 30 -78 24 -117 -15z"/>
<path d="M2610 2029 c0 -5 5 -7 10 -4 6 3 10 8 10 11 0 2 -4 4 -10 4 -5 0 -10
-5 -10 -11z"/>
<path d="M2588 1908 c-2 -13 7 -39 20 -59 12 -20 26 -54 29 -75 7 -43 26 -63
59 -64 39 0 40 37 2 92 -10 14 -18 31 -18 36 0 11 -72 92 -82 92 -4 0 -8 -10
-10 -22z"/>
<path d="M2761 1692 c-8 -18 -11 -35 -8 -38 8 -9 29 35 25 54 -2 12 -8 7 -17
-16z"/>
<path d="M2535 1651 c-3 -5 -1 -12 4 -15 5 -3 11 1 15 9 6 16 -9 21 -19 6z"/>
<path d="M702 1560 c0 -19 2 -27 5 -17 2 9 2 25 0 35 -3 9 -5 1 -5 -18z"/>
<path d="M2530 1501 c0 -6 4 -13 10 -16 6 -3 7 1 4 9 -7 18 -14 21 -14 7z"/>
<path d="M702 1460 c0 -14 2 -19 5 -12 2 6 2 18 0 25 -3 6 -5 1 -5 -13z"/>
</g>
</svg>
